<svg width="378" height="378" viewBox="0 0 378 378" fill="none" xmlns="http://www.w3.org/2000/svg">
<circle cx="189" cy="189" r="189" fill="white"/>
<path d="M334.521 256.974C253.492 297.269 117.771 288.864 71.7889 200.803C53.5843 165.955 46.1797 94.7462 99.1006 94.7462C134.088 94.7462 156.132 135.981 132.497 178.886C152.075 191.528 194.583 167.964 194.583 167.964C232.15 231.397 261.339 241.975 265.328 144.023C265.328 144.023 338.175 182.602 349 174.305C341.565 92.8273 272.919 29 189.334 29C100.784 29 29 100.634 29 189C29 277.366 100.784 349 189.334 349C253.528 349 308.911 311.352 334.521 256.974Z" fill="#3F6CFF"/>
<path d="M334.521 256.974C253.492 297.269 117.771 288.864 71.7889 200.803C53.5843 165.955 46.1797 94.7462 99.1006 94.7462C134.088 94.7462 156.132 135.981 132.497 178.886C152.075 191.528 194.583 167.964 194.583 167.964C232.15 231.397 261.339 241.975 265.328 144.023C265.328 144.023 338.175 182.602 349 174.305C341.565 92.8273 272.919 29 189.334 29C100.784 29 29 100.634 29 189C29 277.366 100.784 349 189.334 349C253.528 349 308.911 311.352 334.521 256.974Z" fill="url(#paint0_radial_83_349)" fill-opacity="0.2"/>
<mask id="mask0_83_349" style="mask-type:alpha" maskUnits="userSpaceOnUse" x="29" y="29" width="320" height="320">
<path d="M334.521 256.974C253.492 297.269 117.771 288.864 71.7889 200.803C53.5843 165.955 46.1797 94.7462 99.1006 94.7462C134.088 94.7462 156.132 135.981 132.497 178.886C152.075 191.528 194.583 167.964 194.583 167.964C232.15 231.397 261.339 241.975 265.328 144.023C265.328 144.023 338.175 182.602 349 174.305C341.565 92.8273 272.919 29 189.334 29C100.784 29 29 100.634 29 189C29 277.366 100.784 349 189.334 349C253.528 349 308.911 311.352 334.521 256.974Z" fill="#3D6DFF"/>
</mask>
<g mask="url(#mask0_83_349)">
<g filter="url(#filter0_d_83_349)">
<path d="M77.3947 210.472C79.5412 214.096 81.8512 217.654 84.3194 221.134H85.0361C139.961 289.925 260.229 293.918 334.521 256.974C308.911 311.352 253.528 349 189.334 349C100.784 349 29 277.366 29 189C29 126.891 50.1387 73.0475 103.515 46.5334C85.9454 60.796 72.3194 79.3236 64.5817 101.349C56.7385 123.674 55.8688 146.962 60.892 169.327C63.3163 180.978 67.2114 192.04 71.7891 200.803C73.5314 204.14 75.4024 207.362 77.3947 210.472Z" fill="#3F6CFF"/>
<path d="M77.3947 210.472C79.5412 214.096 81.8512 217.654 84.3194 221.134H85.0361C139.961 289.925 260.229 293.918 334.521 256.974C308.911 311.352 253.528 349 189.334 349C100.784 349 29 277.366 29 189C29 126.891 50.1387 73.0475 103.515 46.5334C85.9454 60.796 72.3194 79.3236 64.5817 101.349C56.7385 123.674 55.8688 146.962 60.892 169.327C63.3163 180.978 67.2114 192.04 71.7891 200.803C73.5314 204.14 75.4024 207.362 77.3947 210.472Z" fill="url(#paint1_linear_83_349)" fill-opacity="0.2"/>
</g>
</g>
<defs>
<filter id="filter0_d_83_349" x="24" y="38.5334" width="325.521" height="322.467" filterUnits="userSpaceOnUse" color-interpolation-filters="sRGB">
<feFlood flood-opacity="0" result="BackgroundImageFix"/>
<feColorMatrix in="SourceAlpha" type="matrix" values="0 0 0 0 0 0 0 0 0 0 0 0 0 0 0 0 0 0 127 0" result="hardAlpha"/>
<feOffset dx="5" dy="2"/>
<feGaussianBlur stdDeviation="5"/>
<feComposite in2="hardAlpha" operator="out"/>
<feColorMatrix type="matrix" values="0 0 0 0 0 0 0 0 0 0 0 0 0 0 0 0 0 0 0.25 0"/>
<feBlend mode="normal" in2="BackgroundImageFix" result="effect1_dropShadow_83_349"/>
<feBlend mode="normal" in="SourceGraphic" in2="effect1_dropShadow_83_349" result="shape"/>
</filter>
<radialGradient id="paint0_radial_83_349" cx="0" cy="0" r="1" gradientUnits="userSpaceOnUse" gradientTransform="translate(233.5 51.332) rotate(106.771) scale(114.365 193.888)">
<stop stop-color="white"/>
<stop offset="1"/>
</radialGradient>
<linearGradient id="paint1_linear_83_349" x1="181.76" y1="46.5334" x2="181.76" y2="349" gradientUnits="userSpaceOnUse">
<stop stop-color="white"/>
<stop offset="1"/>
</linearGradient>
</defs>
</svg>
