<svg width="17" height="17" viewBox="0 0 17 17" fill="none" xmlns="http://www.w3.org/2000/svg">
<path d="M11.6292 1.54174L10.2097 2.96125L14.0224 6.77399L15.4419 5.35448C16.1752 4.62126 16.1752 3.43344 15.4419 2.70022L14.2864 1.54174C13.5532 0.808516 12.3653 0.808516 11.6321 1.54174H11.6292ZM9.54685 3.62408L2.71031 10.4635C2.4053 10.7686 2.1824 11.1469 2.05922 11.5604L1.02098 15.0887C0.947655 15.338 1.01511 15.6049 1.19695 15.7867C1.37879 15.9686 1.64568 16.036 1.89204 15.9656L5.42029 14.9274C5.83383 14.8042 6.21217 14.5813 6.51719 14.2763L13.3596 7.43682L9.54685 3.62408Z" stroke="white" stroke-width="1.5"/>
</svg>
